<svg id="Layer_1" data-name="Layer 1" xmlns="http://www.w3.org/2000/svg" xmlns:xlink="http://www.w3.org/1999/xlink" viewBox="0 0 1850.55 909.96"><defs><style>.cls-1{fill:#00ffe4;}.cls-2{fill:#07242d;}.cls-3{clip-path:url(#clip-path);}.cls-4{fill:#08b1d5;}.cls-5{fill:#ff445f;}.cls-6{fill:#ffc900;}.cls-7{fill:#1904da;}.cls-8{fill:#183278;}</style><clipPath id="clip-path"><path class="cls-1" d="M542.37,122.08q-30.11-3.17-59.88-4.28-29.79,1.14-59.87,4.28c-108.24,11.36-208.78,38.42-306.27,84l21.39,98.74L180,458.52s38.86,115,117.16,207.52c70.1,82.81,166.05,147,185.32,157.57C501.76,813.05,597.71,748.85,667.81,666,746.12,573.53,785,458.52,785,458.52l42.28-153.66,21.38-98.74C751.15,160.5,650.6,133.44,542.37,122.08Z"/></clipPath></defs><path class="cls-2" d="M1078,407h18.78V290.41c.06-1,0-2.07,0-3.11a51.59,51.59,0,1,0-51.55,51.62h2.61l19-18.9h-21.59A32.71,32.71,0,1,1,1078,287.31Z"/><path class="cls-2" d="M1196.69,235.69V288a33,33,0,1,1-66.07,0V235.69h-18.3V288a51.36,51.36,0,1,0,102.71.07V235.69Z"/><path class="cls-2" d="M975,269.83c-20.43-54-99.62-40.86-100.82,17.63a52,52,0,0,0,48.48,51.82c1.14.07,2.28.11,3.42.11h52V287.46A51.88,51.88,0,0,0,975,269.83Zm-16.14,50.6H926.08a33,33,0,0,1-32.89-33,32.61,32.61,0,0,1,9.68-23.22h0c20.32-20.59,56.07-6.14,56,23.21C958.81,296.56,958.81,320.43,958.81,320.43Z"/><path class="cls-2" d="M1331.41,269.83c-20.43-54-99.62-40.86-100.82,17.63a52,52,0,0,0,48.48,51.82c1.14.07,2.28.11,3.42.11h52V287.46A52.12,52.12,0,0,0,1331.41,269.83Zm-16.14,50.6h-32.73a32.89,32.89,0,0,1-23.22-56.2h0c20.31-20.59,56.07-6.14,55.94,23.21Z"/><path class="cls-2" d="M983.87,669.62v35.77a98.16,98.16,0,0,1-63.62-23.29,99.35,99.35,0,0,1-35.58-76.28V426.7h35.58V508h63.62v36H920.25v62.73A63.65,63.65,0,0,0,983.87,669.62Z"/><path class="cls-2" d="M1052,508l61.12,0v36H1049.5V705.39h-35.69V525.75a99.44,99.44,0,0,1,35.69-76.27,98.16,98.16,0,0,1,63.61-23.29V462A63.61,63.61,0,0,0,1052,508Z"/><path class="cls-2" d="M1280,650.16c-1.8,20.44-20.3,55.24-66.69,55.24-44,0-70.33-29.47-70.33-29.47l25.27-25.27c21.38,20.32,45.06,19,45.06,19,15.13-1,27.27-11.5,28.19-23.81,1-14.12-8.76-23.93-28.19-26.72-9.15-1.31-31.31-3.43-49.52-19.75-5.92-5.32-28.28-28.66-9.66-61.85,3.63-6.48,19.87-29.51,59.18-29.51,0,0,32.39-2.3,62.36,22.18l-25.57,25.56c-5-4.2-19.44-12.68-36.79-12.58-31.42.2-30.55,17.5-30.55,17.5.27,13.77,12.53,21.18,30.55,23.55C1274.62,592.34,1281.75,630,1280,650.16Z"/><path class="cls-2" d="M1497,619.55H1337.8A62.59,62.59,0,0,0,1447.86,646h41.75a98.67,98.67,0,1,1-90.45-138C1458.25,507.52,1505.17,561,1497,619.55Zm-39.55-36a62.8,62.8,0,0,0-116.63,0Z"/><path class="cls-2" d="M1660.82,651.21l25.27,25.27a98.7,98.7,0,1,1,0-139.58l-25.27,25.27a63,63,0,1,0,0,89Z"/><path class="cls-1" d="M542.37,122.08q-30.11-3.17-59.88-4.28-29.79,1.14-59.87,4.28c-108.24,11.36-208.78,38.42-306.27,84l21.39,98.74L180,458.52s38.86,115,117.16,207.52c70.1,82.81,166.05,147,185.32,157.57C501.76,813.05,597.71,748.85,667.81,666,746.12,573.53,785,458.52,785,458.52l42.28-153.66,21.38-98.74C751.15,160.5,650.6,133.44,542.37,122.08Z"/><g class="cls-3"><rect class="cls-4" x="482.49" y="139.48" width="423.1" height="796.75"/><path class="cls-5" d="M797.15,425.54l32.28-78.1c-67.88-37.51-163.26-66.41-260.06-76.6V272l-.66-.08c0,13.86.24,26.28.66,37.71v184a791.74,791.74,0,0,1,82.34,12.8c-.45,1.19-27.65,51.55-67.14,95.8-44.1,49.42-96.86,93.54-102.08,94.35,0,0-.12,136.4,0,136.47,1.84,1,124.08-74.18,200.1-164,77-91,109.14-210.53,109.14-210.53C756,442.34,711.3,427.31,668.41,417.25V380.52C715.49,391.72,758.85,407,797.15,425.54Z"/><path class="cls-6" d="M390.87,272.27C297.15,281.88,213,307.15,147,343.18L170,421.44c62.08-29.75,137.71-50.61,220.85-59.14Z"/><path class="cls-6" d="M395.56,400.76v92.9a791.74,791.74,0,0,0-82.34,12.8c.45,1.19,27.65,51.55,67.14,95.8,44.1,49.42,96.86,93.54,102.08,94.35,0,0,.12,136.4,0,136.47-1.84,1-124.08-74.18-200.1-164-77-91-109.13-210.53-109.13-210.53,35.77-16.22,84.13-31.25,123.32-41.31C336.85,406.9,395.56,400.76,395.56,400.76Z"/></g><path class="cls-7" d="M482.54,114.34h0q-29.94,1.16-60.18,4.3c-108.77,11.42-209.82,38.61-307.79,84.46l21.49,99.23.79,2.88c91-39.79,185-63.87,285.51-74.42,2.53-.27,5.05-.52,7.58-.77V428.68a69.09,69.09,0,0,1,52.6-24.16Z"/><path class="cls-8" d="M482.4,114.39h0q29.94,1.14,60.18,4.29C651.35,130.1,752.4,157.3,850.37,203.14l-21.49,99.24-.79,2.87c-91-39.79-185-63.86-285.51-74.42-2.53-.26-5.05-.52-7.58-.76V428.72a69.12,69.12,0,0,0-52.6-24.16Z"/></svg>